<?xml version="1.0" encoding="utf-8"?>
<!-- Generator: Adobe Illustrator 26.5.0, SVG Export Plug-In . SVG Version: 6.00 Build 0)  -->
<svg version="1.1" id="Ebene_1" xmlns="http://www.w3.org/2000/svg" xmlns:xlink="http://www.w3.org/1999/xlink" x="0px" y="0px"
	 viewBox="0 0 144 144" style="enable-background:new 0 0 144 144;" xml:space="preserve">
<style type="text/css">
	.st0{fill:#0000FF;}
</style>
<path class="st0" d="M58,20v34.9c3.8-0.2,7.1-1.1,10.2-2.9c2.9-1.5,5.5-4,7.7-6.8c2-2.9,3.8-6.6,4.9-10.8c1.1-4.2,1.8-9.1,1.8-14.6
	h47.3c0,12.8-1.8,23.2-5.1,31.4c-3.3,8.4-8.4,15.2-15.7,20.5c7.1,5.3,12.4,12.4,16.3,21c4,8.6,6.4,19.2,7.1,31.6H82.3
	C81.2,99.3,73,86.7,58,86v38.2H11.6V20H58L58,20z"/>
</svg>
