<?xml version="1.0" encoding="utf-8"?>
<!-- Generator: Adobe Illustrator 26.5.0, SVG Export Plug-In . SVG Version: 6.00 Build 0)  -->
<svg version="1.1" id="Ebene_1_Kopie" xmlns="http://www.w3.org/2000/svg" xmlns:xlink="http://www.w3.org/1999/xlink" x="0px"
	 y="0px" viewBox="0 0 251.4 77.2" style="enable-background:new 0 0 251.4 77.2;" xml:space="preserve">
<style type="text/css">
	.st0{fill:#0000FF;}
</style>
<path class="st0" d="M44.6,10.8c1.2,0.7,2.6,1.2,4.4,1.6c1.7,0.4,3.6,0.6,5.5,0.6c1.8,0,3.5-0.2,5.2-0.5s3-0.9,4.2-1.6v37.4H44.6
	V10.8L44.6,10.8z M63.7,5.4c0,1.5-0.5,2.8-1.6,3.8c-1.1,1.1-2.3,1.6-3.8,1.6s-2.8-0.5-3.8-1.6c-1.1-1.1-1.6-2.4-1.6-3.9
	s0.5-2.7,1.6-3.8c1-1,2.3-1.5,3.8-1.5s2.7,0.5,3.8,1.6C63.2,2.6,63.7,3.9,63.7,5.4z M93.4,0c1.4,0,3,0.1,4.6,0.4s3.3,0.6,4.9,1v18.8
	c-1-1.2-2-2.1-2.9-2.6s-2-0.8-3.1-0.8c-1.4,0-2.6,0.5-3.5,1.3c-0.9,0.9-1.3,2.2-1.3,3.9H103v7.9H92.1v18.2H72.9V29.9h-4.1V22h4.1
	v-0.2c0-6.9,1.9-12.2,5.6-16C82.2,1.9,87.2,0,93.4,0L93.4,0z M129.2,0c1.4,0,3,0.1,4.6,0.4s3.3,0.6,4.9,1v18.8c-1-1.2-2-2.1-2.9-2.6
	s-2-0.8-3.1-0.8c-1.4,0-2.6,0.5-3.5,1.3c-0.9,0.9-1.3,2.2-1.3,3.9h10.9v7.9h-10.9v18.2h-19.2V29.9h-4.1V22h4.1v-0.2
	c0-6.9,1.9-12.2,5.6-16C118,1.9,123,0,129.2,0L129.2,0z M160.9,10c3.9,0,7.3,0.8,10.4,2.5c3.1,1.7,5.5,4.1,7.2,7.3s2.6,6.8,2.6,10.9
	v1.2h-19.6c0.3,0.9,0.8,1.8,1.4,2.5c0.6,0.8,1.3,1.4,2.1,1.9s1.7,0.9,2.6,1.2c1,0.3,2,0.4,3.1,0.4c1,0,2-0.1,3-0.3s1.9-0.5,2.8-0.8
	s1.7-0.8,2.5-1.3s1.4-1.1,2.1-1.7v6.5c-2.2,2.9-4.8,5-7.8,6.3s-6.4,2-10.3,2c-2.1,0-4.2-0.2-6.1-0.6c-1.9-0.4-3.7-1-5.3-1.8
	s-3.1-1.8-4.3-3s-2.4-2.5-3.2-3.9c-0.9-1.5-1.6-3.1-2-4.8c-0.5-1.7-0.7-3.6-0.6-5.5c0-3.7,0.8-6.9,2.4-9.8c1.7-2.9,4-5.2,6.9-6.8
	C153.7,10.8,157.1,10,160.9,10L160.9,10z M160.3,25.3h9c-0.1-1.8-0.5-3.3-1.4-4.3c-0.8-1.1-1.9-1.6-3.3-1.6c-1.2,0-2.3,0.5-3.1,1.6
	c-0.8,1-1.2,2.3-1.2,3.9V25.3L160.3,25.3z M206.2,0.8v47.4H187V0.8H206.2z"/>
<g>
	<path class="st0" d="M40.2,0.8v11.8H22.3v8.6h13.3V33H22.3v15H1.4V0.8H40.2z"/>
</g>
<g>
	<path class="st0" d="M0.7,67.1c0-5.8,3.9-9.9,9.3-9.9c4,0,7.6,2.5,8.7,5.9l-4.5,1.7c-0.5-2.1-2.3-3.5-4.1-3.5
		c-2.8,0-4.8,2.4-4.8,5.8S7.4,73,10.2,73c2.2,0,4-1.6,4.2-3.8H8.1V66h10.4l0.9,10.6h-2.6l-1-3.8c-0.7,2.4-3.1,4.1-6.3,4.1
		C4.4,77,0.7,72.8,0.7,67.1z"/>
	<path class="st0" d="M21,69.2c0-4.5,3.1-7.7,7.3-7.7c4.1,0,7.1,3.2,7.1,7.7c0,0.4,0,0.7-0.1,0.9H25.2c0.3,1.8,1.6,2.9,3.1,2.9
		c1.2,0,2.3-0.7,2.6-1.7l4.1,1.3c-0.9,2.5-3.6,4.2-6.8,4.2C24.1,77,21,73.7,21,69.2z M31.1,67.8c-0.3-1.4-1.4-2.5-2.9-2.5
		c-1.4,0-2.5,1-2.9,2.5H31.1z"/>
	<path class="st0" d="M41.1,61.9l1.4,10.8l1.8-10.8h3.3l1.8,10.8l1.5-10.9h4.2l-2.6,14.8h-4.7l-1.9-10.8l-1.7,10.8h-4.9l-2.5-14.7
		C36.8,61.9,41.1,61.9,41.1,61.9z"/>
	<path class="st0" d="M59.4,55.4c1.5,0,2.5,1.1,2.5,2.6s-1.1,2.6-2.5,2.6s-2.5-1.1-2.5-2.6S57.9,55.4,59.4,55.4z M61.4,61.9v14.7
		h-4.1V61.9H61.4z"/>
	<path class="st0" d="M71.4,65.5c-1.7,0-2.9,1.5-2.9,3.5v7.5h-4.1V61.9h3.2l0.9,2.3c0.7-1.6,2.6-2.6,4.5-2.6c3,0,5.1,2.7,5.1,6.4
		v8.7H74v-8C74,66.8,72.9,65.5,71.4,65.5z"/>
	<path class="st0" d="M87.9,65.5C86.2,65.5,85,67,85,69v7.5h-4.1V61.9H84l0.9,2.3c0.7-1.6,2.6-2.6,4.5-2.6c3,0,5.1,2.7,5.1,6.4v8.7
		h-4.1v-8C90.4,66.8,89.4,65.5,87.9,65.5z"/>
	<path class="st0" d="M101.5,56.6v10.6l4.4-5.3h5.3l-5.3,5.8l5.9,8.9h-5.1l-3.6-5.9l-1.6,1.7v4.2h-4.1v-20
		C97.4,56.6,101.5,56.6,101.5,56.6z"/>
	<path class="st0" d="M115.6,68.6l4.8-1c0.4-0.1,0.5-0.3,0.5-0.5c0-1-0.9-1.8-2.1-1.8s-2.1,0.8-2.2,1.9l-4-1.4
		c0.7-2.5,3.2-4.2,6.1-4.2c3.7,0,6.4,2.3,6.4,5.5v6.6l0.1,2.9H122l-0.6-1.7c-0.9,1.3-2.5,2.1-4.4,2.1c-2.8,0-4.8-1.8-4.8-4.4
		C112.1,70.7,113.5,69,115.6,68.6z M120,69.9l-2.2,0.5c-0.8,0.2-1.3,0.7-1.3,1.4c0,0.8,0.6,1.4,1.6,1.4c1.5,0,2.9-1.2,2.9-3.2v-0.2
		C121,69.7,120.5,69.8,120,69.9z"/>
	<path class="st0" d="M127.8,61.9h3.2l0.8,2.1c0.7-1.6,2-2.5,3.6-2.5c0.6,0,1.1,0.1,1.5,0.4l-0.7,4.4c-0.3-0.1-0.7-0.2-1.2-0.2
		c-1.8,0-3.1,1.2-3.1,3.1v7.4h-4.1C127.8,76.6,127.8,61.9,127.8,61.9z"/>
	<path class="st0" d="M137.3,61.9h0.9c0.8,0,1.4-0.6,1.4-1.5v-2.6h3.9v4.1h3.3v3.6h-3.3V71c0,1.4,0.8,2,2,2c0.3,0,0.6,0,1.1-0.2
		l0.7,3.8c-0.6,0.2-1.5,0.4-2.9,0.4c-2.9,0-5-2-5-4.8v-6.6h-2.1L137.3,61.9L137.3,61.9z"/>
	<path class="st0" d="M148.2,69.2c0-4.5,3.1-7.7,7.3-7.7c4.1,0,7.1,3.2,7.1,7.7c0,0.4,0,0.7-0.1,0.9h-10.1c0.3,1.8,1.6,2.9,3.1,2.9
		c1.2,0,2.3-0.7,2.6-1.7l4.1,1.3c-0.9,2.5-3.6,4.2-6.8,4.2C151.3,77,148.2,73.7,148.2,69.2z M158.3,67.8c-0.3-1.4-1.4-2.5-2.9-2.5
		s-2.5,1-2.9,2.5H158.3z"/>
</g>
<g>
	<path class="st0" d="M221.2,19.3c-5.1,0-9.3-4.2-9.3-9.3s4.2-9.3,9.3-9.3s9.3,4.2,9.3,9.3S226.3,19.3,221.2,19.3z M221.2,2.3
		c-4.3,0-7.7,3.5-7.7,7.7c0,4.3,3.5,7.7,7.7,7.7c4.3,0,7.7-3.5,7.7-7.7C228.9,5.7,225.4,2.3,221.2,2.3z"/>
</g>
<g>
	<path class="st0" d="M221.2,15.5c-3,0-5.5-2.5-5.5-5.5h1.6c0,2.1,1.7,3.9,3.9,3.9c2.1,0,3.9-1.7,3.9-3.9h1.6
		C226.6,13,224.2,15.5,221.2,15.5z"/>
</g>
<circle class="st0" cx="219.2" cy="7.9" r="1.1"/>
<circle class="st0" cx="223.3" cy="7.9" r="1.1"/>
</svg>
