<?xml version="1.0" encoding="utf-8"?>
<!-- Generator: Adobe Illustrator 26.5.0, SVG Export Plug-In . SVG Version: 6.00 Build 0)  -->
<svg version="1.1" id="Ebene_1_Kopie" xmlns="http://www.w3.org/2000/svg" xmlns:xlink="http://www.w3.org/1999/xlink" x="0px"
	 y="0px" viewBox="0 0 251.4 77.2" style="enable-background:new 0 0 251.4 77.2;" xml:space="preserve">
<style type="text/css">
	.st0{fill:#0000FF;}
</style>
<path class="st0" d="M22.4,0.8v15.8c1.7-0.1,3.2-0.5,4.6-1.3c1.3-0.7,2.5-1.8,3.5-3.1c0.9-1.3,1.7-3,2.2-4.9
	c0.5-1.9,0.8-4.1,0.8-6.6h21.4c0,5.8-0.8,10.5-2.3,14.2c-1.5,3.8-3.8,6.9-7.1,9.3c3.2,2.4,5.6,5.6,7.4,9.5s2.9,8.7,3.2,14.3H33.4
	c-0.5-11.3-4.2-17-11-17.3v17.3h-21V0.8H22.4L22.4,0.8z M60.6,10.8c1.2,0.7,2.6,1.2,4.4,1.6c1.7,0.4,3.6,0.6,5.5,0.6
	c1.8,0,3.5-0.2,5.2-0.5s3-0.9,4.2-1.6v37.4H60.6V10.8L60.6,10.8z M79.7,5.4c0,1.5-0.5,2.8-1.6,3.8c-1.1,1.1-2.3,1.6-3.8,1.6
	s-2.8-0.5-3.8-1.6c-1.1-1.1-1.6-2.4-1.6-3.9s0.5-2.7,1.6-3.8C71.5,0.5,72.8,0,74.3,0s2.7,0.5,3.8,1.6C79.2,2.6,79.7,3.9,79.7,5.4z
	 M109.4,0c1.4,0,3,0.1,4.6,0.4c1.6,0.3,3.3,0.6,4.9,1v18.8c-1-1.2-2-2.1-2.9-2.6s-2-0.8-3.1-0.8c-1.4,0-2.6,0.5-3.5,1.3
	c-0.9,0.9-1.3,2.2-1.3,3.9H119v7.9h-10.9v18.2H88.9V29.9h-4.1V22h4.1v-0.2c0-6.9,1.9-12.2,5.6-16C98.2,1.9,103.2,0,109.4,0L109.4,0z
	 M145.2,0c1.4,0,3,0.1,4.6,0.4c1.6,0.3,3.3,0.6,4.9,1v18.8c-1-1.2-2-2.1-2.9-2.6s-2-0.8-3.1-0.8c-1.4,0-2.6,0.5-3.5,1.3
	c-0.9,0.9-1.3,2.2-1.3,3.9h10.9v7.9h-10.9v18.2h-19.2V29.9h-4.1V22h4.1v-0.2c0-6.9,1.9-12.2,5.6-16C134,1.9,139,0,145.2,0L145.2,0z
	 M176.9,10c3.9,0,7.3,0.8,10.4,2.5c3.1,1.7,5.5,4.1,7.2,7.3c1.7,3.2,2.6,6.8,2.6,10.9v1.2h-19.6c0.3,0.9,0.8,1.8,1.4,2.5
	c0.6,0.8,1.3,1.4,2.1,1.9c0.8,0.5,1.7,0.9,2.6,1.2c1,0.3,2,0.4,3.1,0.4c1,0,2-0.1,3-0.3c1-0.2,1.9-0.5,2.8-0.8s1.7-0.8,2.5-1.3
	s1.4-1.1,2.1-1.7v6.5c-2.2,2.9-4.8,5-7.8,6.3c-3,1.3-6.4,2-10.3,2c-2.1,0-4.2-0.2-6.1-0.6c-1.9-0.4-3.7-1-5.3-1.8s-3.1-1.8-4.3-3
	s-2.4-2.5-3.2-3.9c-0.9-1.5-1.6-3.1-2-4.8c-0.5-1.7-0.7-3.6-0.6-5.5c0-3.7,0.8-6.9,2.4-9.8c1.7-2.9,4-5.2,6.9-6.8
	C169.7,10.8,173.1,10,176.9,10L176.9,10z M176.3,25.3h9c-0.1-1.8-0.5-3.3-1.4-4.3c-0.8-1.1-1.9-1.6-3.3-1.6c-1.2,0-2.3,0.5-3.1,1.6
	c-0.8,1-1.2,2.3-1.2,3.9L176.3,25.3L176.3,25.3z M222.2,0.8v47.4H203V0.8C203,0.8,222.2,0.8,222.2,0.8z M11.7,69.1v-3.7h9.6v8.8
	c-0.9,0.9-2.3,1.7-4,2.4c-1.8,0.7-3.6,1-5.4,1c-2.3,0-4.3-0.5-6-1.4c-1.7-1-3-2.3-3.9-4.1c-0.9-1.8-1.3-3.8-1.3-5.9
	c0-2.3,0.5-4.3,1.4-6.1c1-1.8,2.4-3.2,4.2-4.1c1.4-0.7,3.2-1.1,5.3-1.1c2.7,0,4.9,0.6,6.4,1.7c1.5,1.2,2.5,2.7,3,4.8l-4.4,0.8
	c-0.3-1.1-0.9-1.9-1.7-2.6c-0.9-0.6-1.9-0.9-3.2-0.9c-2,0-3.5,0.6-4.6,1.8c-1.2,1.2-1.7,3.1-1.7,5.5c0,2.6,0.6,4.6,1.8,5.9
	c1.2,1.3,2.7,2,4.6,2c0.9,0,1.9-0.2,2.8-0.6c0.9-0.4,1.7-0.8,2.4-1.3v-2.8L11.7,69.1L11.7,69.1z M34.6,72.2l4.2,0.7
	c-0.5,1.5-1.4,2.7-2.6,3.5c-1.2,0.8-2.6,1.2-4.4,1.2c-2.8,0-4.8-0.9-6.2-2.7c-1-1.4-1.6-3.3-1.6-5.5c0-2.6,0.7-4.7,2.1-6.2
	c1.4-1.5,3.1-2.2,5.2-2.2c2.4,0,4.2,0.8,5.6,2.3c1.4,1.6,2,4,2,7.2H28.5c0,1.2,0.4,2.2,1,2.9s1.5,1.1,2.4,1.1c0.7,0,1.2-0.2,1.7-0.5
	C34,73.5,34.4,73,34.6,72.2L34.6,72.2z M34.8,67.9c0-1.2-0.3-2.1-1-2.8s-1.3-1-2.2-1c-0.9,0-1.7,0.3-2.3,1c-0.6,0.7-0.9,1.6-0.9,2.7
	H34.8L34.8,67.9z M45.5,77.2l-5.1-16h4.1l3,10.5l2.8-10.5h4.1L57,71.7L60,61.3h4.2l-5.1,16H55L52.3,67l-2.7,10.3
	C49.6,77.2,45.5,77.2,45.5,77.2z M66.4,59.1v-3.9h4.2v3.9H66.4z M66.4,77.2v-16h4.2v16H66.4z M89.5,77.2h-4.2v-8.1
	c0-1.7-0.1-2.8-0.3-3.4c-0.2-0.5-0.5-0.9-0.9-1.2c-0.4-0.3-0.9-0.4-1.5-0.4c-0.7,0-1.4,0.2-2,0.6c-0.6,0.4-1,0.9-1.2,1.6
	c-0.2,0.7-0.3,1.9-0.3,3.7v7.2H75v-16h3.9v2.3c1.4-1.8,3.2-2.7,5.3-2.7c0.9,0,1.8,0.2,2.6,0.5c0.8,0.3,1.4,0.8,1.8,1.3
	s0.7,1.1,0.8,1.8c0.2,0.7,0.2,1.6,0.2,2.8L89.5,77.2L89.5,77.2z M108.3,77.2h-4.2v-8.1c0-1.7-0.1-2.8-0.3-3.4
	c-0.2-0.5-0.5-0.9-0.9-1.2s-0.9-0.4-1.5-0.4c-0.7,0-1.4,0.2-2,0.6c-0.6,0.4-1,0.9-1.2,1.6C98.1,67,98,68.2,98,70v7.2h-4.2v-16h3.9
	v2.3c1.4-1.8,3.2-2.7,5.3-2.7c0.9,0,1.8,0.2,2.6,0.5c0.8,0.3,1.4,0.8,1.8,1.3s0.7,1.1,0.8,1.8c0.2,0.7,0.2,1.6,0.2,2.8L108.3,77.2
	L108.3,77.2z M112.5,77.2v-22h4.2v11.7l4.9-5.6h5.2l-5.5,5.8l5.9,10.1h-4.6l-4-7.2l-2,2.1v5.1L112.5,77.2L112.5,77.2z M132.9,66.1
	l-3.8-0.7c0.4-1.5,1.2-2.7,2.2-3.4s2.6-1.1,4.7-1.1c1.9,0,3.3,0.2,4.2,0.7c0.9,0.4,1.6,1,1.9,1.7c0.4,0.7,0.6,1.9,0.6,3.8l0,4.9
	c0,1.4,0.1,2.4,0.2,3.1c0.1,0.7,0.4,1.4,0.8,2.1h-4.2c-0.1-0.3-0.2-0.7-0.4-1.2c-0.1-0.2-0.1-0.4-0.1-0.5c-0.7,0.7-1.5,1.2-2.3,1.6
	c-0.8,0.3-1.7,0.5-2.6,0.5c-1.6,0-2.9-0.4-3.9-1.3s-1.4-2-1.4-3.4c0-0.9,0.2-1.7,0.6-2.4c0.4-0.7,1-1.2,1.8-1.6
	c0.8-0.4,1.9-0.7,3.4-1c2-0.4,3.3-0.7,4.1-1v-0.4c0-0.8-0.2-1.4-0.6-1.7c-0.4-0.3-1.2-0.5-2.3-0.5c-0.8,0-1.3,0.1-1.8,0.4
	C133.5,64.9,133.2,65.4,132.9,66.1L132.9,66.1z M138.6,69.6c-0.5,0.2-1.4,0.4-2.6,0.7c-1.2,0.2-1.9,0.5-2.3,0.7
	c-0.6,0.4-0.8,0.9-0.8,1.5c0,0.6,0.2,1.1,0.7,1.5c0.4,0.4,1,0.6,1.7,0.6c0.8,0,1.5-0.2,2.2-0.8c0.5-0.4,0.9-0.8,1-1.4
	c0.1-0.4,0.2-1.1,0.2-2.1L138.6,69.6L138.6,69.6z M150.9,77.2h-4.2v-16h3.9v2.3c0.7-1.1,1.3-1.8,1.8-2.1c0.5-0.3,1.1-0.5,1.8-0.5
	c1,0,1.9,0.3,2.8,0.8l-1.3,3.7c-0.7-0.5-1.4-0.7-2-0.7s-1.1,0.2-1.5,0.5c-0.4,0.3-0.7,0.9-1,1.8c-0.2,0.8-0.4,2.6-0.4,5.4
	L150.9,77.2L150.9,77.2z M167.4,61.3v3.4h-2.9v6.4c0,1.3,0,2.1,0.1,2.3s0.2,0.4,0.4,0.5s0.4,0.2,0.7,0.2c0.4,0,1-0.1,1.7-0.4
	l0.4,3.3c-1,0.4-2.1,0.6-3.3,0.6c-0.8,0-1.4-0.1-2.1-0.4s-1.1-0.6-1.4-1c-0.3-0.4-0.5-1-0.6-1.7c-0.1-0.5-0.1-1.5-0.1-3v-7h-1.9
	v-3.4h1.9v-3.2l4.2-2.5v5.6L167.4,61.3L167.4,61.3z M179.6,72.2l4.2,0.7c-0.5,1.5-1.4,2.7-2.6,3.5c-1.2,0.8-2.6,1.2-4.4,1.2
	c-2.8,0-4.8-0.9-6.2-2.7c-1.1-1.4-1.6-3.3-1.6-5.5c0-2.7,0.7-4.7,2.1-6.2c1.4-1.5,3.1-2.2,5.2-2.2c2.4,0,4.2,0.8,5.6,2.3
	c1.4,1.6,2,4,2,7.2h-10.6c0,1.2,0.4,2.2,1,2.9c0.6,0.7,1.5,1.1,2.4,1.1c0.7,0,1.2-0.2,1.7-0.5S179.4,73,179.6,72.2L179.6,72.2z
	 M179.9,67.9c0-1.2-0.4-2.2-0.9-2.8c-0.6-0.6-1.3-1-2.2-1c-0.9,0-1.7,0.3-2.3,1c-0.6,0.7-0.9,1.6-0.9,2.7H179.9L179.9,67.9z
	 M239.6,0.6c2.1,0,4,0.5,5.9,1.6c1.8,1,3.3,2.5,4.3,4.3c1,1.8,1.6,3.8,1.6,5.9s-0.5,4.1-1.6,5.9c-1,1.8-2.5,3.2-4.3,4.3
	c-1.8,1-3.8,1.6-5.9,1.6s-4.1-0.5-5.9-1.6c-1.8-1-3.2-2.5-4.3-4.3c-1-1.8-1.6-3.8-1.6-5.9s0.5-4,1.6-5.9c1-1.8,2.5-3.3,4.3-4.3
	C235.6,1.1,237.5,0.6,239.6,0.6L239.6,0.6z M230.2,12.4c0,1.7,0.4,3.2,1.2,4.7c0.8,1.5,2,2.6,3.5,3.5c1.5,0.8,3.1,1.3,4.8,1.3
	s3.3-0.4,4.7-1.3c1.5-0.8,2.6-2,3.5-3.5c0.8-1.5,1.3-3,1.3-4.7s-0.4-3.2-1.3-4.7c-0.9-1.5-2-2.6-3.5-3.5c-1.5-0.8-3-1.3-4.7-1.3
	s-3.2,0.4-4.7,1.3c-1.5,0.8-2.6,2-3.5,3.5C230.6,9.1,230.2,10.7,230.2,12.4L230.2,12.4z M240.6,6.2c1.1,0,2,0.3,2.7,1
	c0.7,0.6,1.1,1.5,1.1,2.5c0,1-0.3,1.8-0.9,2.4c-0.6,0.6-1.4,1-2.5,1.1v0.1c0.6,0.2,1.2,0.6,1.6,1.3c0.2,0.3,0.5,0.8,1,1.5
	c0.4,0.7,0.9,1.6,1.5,2.6H242l-1-1.9c-0.5-1-1-1.8-1.4-2.2c-0.4-0.4-0.7-0.7-1-0.8c-0.3-0.1-0.7-0.2-1.1-0.2h-0.7v5.1h-2.5V6.2
	L240.6,6.2L240.6,6.2z M239.4,11.6c0.8,0,1.4-0.2,1.8-0.5s0.6-0.7,0.6-1.3s-0.2-1-0.6-1.3c-0.4-0.3-1.1-0.4-1.9-0.4h-2.4v3.4H239.4
	L239.4,11.6z"/>
</svg>
